<svg data-v-423bf9ae="" xmlns="http://www.w3.org/2000/svg" viewBox="0 0 436 112" class="iconLeft"><!----><!----><!----><g data-v-423bf9ae="" id="31724c92-cfa3-44b0-bec4-ec9c05ed743e" fill="black" transform="matrix(4.995836707455764,0,0,4.995836707455764,117.4111221039291,-12.760289568878335)"><path d="M6.44 8.43L7.56 8.43L7.56 17.18L6.44 17.18L6.44 13.31L2.49 13.31L2.49 17.18L1.37 17.18L1.37 8.43L2.49 8.43L2.49 12.39L6.44 12.39L6.44 8.43ZM13.82 10.18L14.94 10.18L12.84 16.81L12.84 16.81Q12.50 17.89 12.14 18.49L12.14 18.49L12.14 18.49Q11.77 19.10 11.29 19.36L11.29 19.36L11.29 19.36Q10.81 19.61 10.09 19.61L10.09 19.61L10.09 19.61Q9.49 19.61 8.97 19.47L8.97 19.47L9.02 18.87L9.84 18.77L9.84 18.77Q10.42 18.69 10.72 18.55L10.72 18.55L10.72 18.55Q11.03 18.41 11.23 18.12L11.23 18.12L11.23 18.12Q11.42 17.84 11.59 17.29L11.59 17.29L11.73 16.81L11.13 16.81L9.03 10.18L10.15 10.18L11.91 15.88L12.05 15.88L13.82 10.18ZM19.57 10.05L19.57 10.05Q20.62 10.05 21.13 10.33L21.13 10.33L21.13 10.33Q21.63 10.61 21.81 11.36L21.81 11.36L21.81 11.36Q21.99 12.11 21.99 13.68L21.99 13.68L21.99 13.68Q21.99 15.26 21.80 16.03L21.80 16.03L21.80 16.03Q21.62 16.80 21.11 17.09L21.11 17.09L21.11 17.09Q20.61 17.39 19.57 17.39L19.57 17.39L19.57 17.39Q18.79 17.39 18.30 17.31L18.30 17.31L18.30 17.31Q17.81 17.23 17.51 17.02L17.51 17.02L17.51 19.53L16.39 19.68L16.39 10.18L16.88 10.18L17.16 10.75L17.16 10.75Q17.43 10.35 17.98 10.20L17.98 10.20L17.98 10.20Q18.54 10.05 19.57 10.05L19.57 10.05ZM20.83 16.09L20.83 11.00L18.17 11.00L18.17 11.00Q17.79 11.00 17.65 11.06L17.65 11.06L17.65 11.06Q17.51 11.12 17.51 11.27L17.51 11.27L17.51 16.44L20.16 16.44L20.16 16.44Q20.57 16.44 20.70 16.37L20.70 16.37L20.70 16.37Q20.83 16.30 20.83 16.09L20.83 16.09ZM26.60 16.38L26.60 16.38Q27.17 16.38 27.71 16.31L27.71 16.31L27.71 16.31Q28.24 16.24 29.01 16.06L29.01 16.06L29.16 16.90L29.16 16.90Q28.69 17.08 27.93 17.19L27.93 17.19L27.93 17.19Q27.17 17.30 26.36 17.30L26.36 17.30L26.36 17.30Q25.30 17.30 24.77 17.01L24.77 17.01L24.77 17.01Q24.25 16.72 24.04 15.95L24.04 15.95L24.04 15.95Q23.84 15.19 23.84 13.68L23.84 13.68L23.84 13.68Q23.84 12.24 24.09 11.47L24.09 11.47L24.09 11.47Q24.33 10.70 24.93 10.37L24.93 10.37L24.93 10.37Q25.52 10.05 26.64 10.05L26.64 10.05L26.64 10.05Q27.75 10.05 28.31 10.23L28.31 10.23L28.31 10.23Q28.88 10.40 29.11 10.83L29.11 10.83L29.11 10.83Q29.34 11.26 29.34 12.10L29.34 12.10L29.34 12.10Q29.34 13.16 29.07 13.59L29.07 13.59L29.07 13.59Q28.80 14.03 27.94 14.17L27.94 14.17L27.94 14.17Q27.09 14.31 25.00 14.31L25.00 14.31L25.00 16.21L25.00 16.21Q25.61 16.38 26.60 16.38L26.60 16.38ZM26.21 11.02L26.21 11.02Q25.51 11.02 25.26 11.20L25.26 11.20L25.26 11.20Q25.00 11.38 25.00 11.89L25.00 11.89L25.00 13.50L27.12 13.50L27.12 13.50Q27.83 13.50 28.08 13.31L28.08 13.31L28.08 13.31Q28.34 13.13 28.34 12.64L28.34 12.64L28.34 11.02L26.21 11.02ZM32.28 10.18L32.72 11.33L32.72 11.33Q33.39 10.74 33.83 10.42L33.83 10.42L33.83 10.42Q34.27 10.11 34.61 9.97L34.61 9.97L34.75 11.07L34.75 11.07Q34.27 11.23 33.77 11.49L33.77 11.49L33.77 11.49Q33.26 11.76 32.90 12.04L32.90 12.04L32.90 17.18L31.78 17.18L31.78 10.18L32.28 10.18ZM38.67 16.38L38.67 16.38Q39.24 16.38 39.77 16.31L39.77 16.31L39.77 16.31Q40.31 16.24 41.08 16.06L41.08 16.06L41.23 16.90L41.23 16.90Q40.75 17.08 40.00 17.19L40.00 17.19L40.00 17.19Q39.24 17.30 38.43 17.30L38.43 17.30L38.43 17.30Q37.37 17.30 36.84 17.01L36.84 17.01L36.84 17.01Q36.32 16.72 36.11 15.95L36.11 15.95L36.11 15.95Q35.91 15.19 35.91 13.68L35.91 13.68L35.91 13.68Q35.91 12.24 36.16 11.47L36.16 11.47L36.16 11.47Q36.40 10.70 37.00 10.37L37.00 10.37L37.00 10.37Q37.59 10.05 38.71 10.05L38.71 10.05L38.71 10.05Q39.82 10.05 40.38 10.23L40.38 10.23L40.38 10.23Q40.95 10.40 41.18 10.83L41.18 10.83L41.18 10.83Q41.41 11.26 41.41 12.10L41.41 12.10L41.41 12.10Q41.41 13.16 41.14 13.59L41.14 13.59L41.14 13.59Q40.87 14.03 40.01 14.17L40.01 14.17L40.01 14.17Q39.16 14.31 37.07 14.31L37.07 14.31L37.07 16.21L37.07 16.21Q37.67 16.38 38.67 16.38L38.67 16.38ZM38.28 11.02L38.28 11.02Q37.58 11.02 37.32 11.20L37.32 11.20L37.32 11.20Q37.07 11.38 37.07 11.89L37.07 11.89L37.07 13.50L39.19 13.50L39.19 13.50Q39.90 13.50 40.15 13.31L40.15 13.31L40.15 13.31Q40.40 13.13 40.40 12.64L40.40 12.64L40.40 11.02L38.28 11.02ZM47.88 7.83L49.00 7.67L49.00 17.18L48.51 17.18L48.24 16.63L48.24 16.63Q47.98 17.07 47.46 17.23L47.46 17.23L47.46 17.23Q46.94 17.39 45.99 17.39L45.99 17.39L45.99 17.39Q44.86 17.39 44.32 17.12L44.32 17.12L44.32 17.12Q43.79 16.84 43.60 16.08L43.60 16.08L43.60 16.08Q43.40 15.32 43.40 13.68L43.40 13.68L43.40 13.68Q43.40 12.14 43.59 11.39L43.59 11.39L43.59 11.39Q43.78 10.64 44.27 10.35L44.27 10.35L44.27 10.35Q44.76 10.05 45.77 10.05L45.77 10.05L45.77 10.05Q46.56 10.05 47.07 10.14L47.07 10.14L47.07 10.14Q47.57 10.22 47.88 10.42L47.88 10.42L47.88 7.83ZM47.88 16.09L47.88 11.00L45.22 11.00L45.22 11.00Q44.83 11.00 44.70 11.07L44.70 11.07L44.70 11.07Q44.56 11.14 44.56 11.35L44.56 11.35L44.56 16.44L47.21 16.44L47.21 16.44Q47.61 16.44 47.75 16.37L47.75 16.37L47.75 16.37Q47.88 16.30 47.88 16.09L47.88 16.09ZM53.82 16.27L53.82 16.27Q55.01 16.39 55.54 16.54L55.54 16.54L55.54 16.54Q56.07 16.69 56.26 16.95L56.26 16.95L56.26 16.95Q56.45 17.22 56.45 17.78L56.45 17.78L56.45 17.78Q56.45 18.42 56.20 18.78L56.20 18.78L56.20 18.78Q55.94 19.14 55.36 19.30L55.36 19.30L55.36 19.30Q54.78 19.46 53.75 19.46L53.75 19.46L53.75 19.46Q53.02 19.46 52.32 19.35L52.32 19.35L52.32 19.35Q51.62 19.24 51.17 19.05L51.17 19.05L51.32 18.16L51.32 18.16Q52.08 18.34 52.57 18.42L52.57 18.42L52.57 18.42Q53.06 18.49 53.56 18.49L53.56 18.49L53.56 18.49Q54.74 18.49 55.45 18.33L55.45 18.33L55.45 17.18L55.45 17.18Q54.00 17.09 53.40 16.96L53.40 16.96L53.40 16.96Q52.79 16.83 52.79 16.59L52.79 16.59L53.16 15.11L53.16 15.11Q52.35 15.05 51.89 14.79L51.89 14.79L51.89 14.79Q51.44 14.53 51.25 14L51.25 14L51.25 14Q51.06 13.47 51.06 12.56L51.06 12.56L51.06 12.56Q51.06 11.55 51.30 11.00L51.30 11.00L51.30 11.00Q51.53 10.44 52.10 10.21L52.10 10.21L52.10 10.21Q52.67 9.97 53.70 9.97L53.70 9.97L53.70 9.97Q54.82 9.97 55.40 10.25L55.40 10.25L56.36 9.52L56.94 10.08L56.13 11.00L56.13 11.00Q56.36 11.54 56.36 12.56L56.36 12.56L56.36 12.56Q56.36 13.54 56.14 14.08L56.14 14.08L56.14 14.08Q55.92 14.62 55.39 14.85L55.39 14.85L55.39 14.85Q54.87 15.09 53.89 15.12L53.89 15.12L53.82 16.27ZM52.19 11.75L52.19 14.31L54.10 14.31L54.10 14.31Q54.74 14.31 54.99 14.10L54.99 14.10L54.99 14.10Q55.23 13.89 55.23 13.36L55.23 13.36L55.23 10.79L53.33 10.79L53.33 10.79Q52.68 10.79 52.44 11.00L52.44 11.00L52.44 11.00Q52.19 11.20 52.19 11.75L52.19 11.75ZM61.03 16.38L61.03 16.38Q61.60 16.38 62.13 16.31L62.13 16.31L62.13 16.31Q62.66 16.24 63.43 16.06L63.43 16.06L63.59 16.90L63.59 16.90Q63.11 17.08 62.36 17.19L62.36 17.19L62.36 17.19Q61.60 17.30 60.79 17.30L60.79 17.30L60.79 17.30Q59.72 17.30 59.20 17.01L59.20 17.01L59.20 17.01Q58.67 16.72 58.47 15.95L58.47 15.95L58.47 15.95Q58.27 15.19 58.27 13.68L58.27 13.68L58.27 13.68Q58.27 12.24 58.51 11.47L58.51 11.47L58.51 11.47Q58.76 10.70 59.35 10.37L59.35 10.37L59.35 10.37Q59.95 10.05 61.07 10.05L61.07 10.05L61.07 10.05Q62.17 10.05 62.74 10.23L62.74 10.23L62.74 10.23Q63.31 10.40 63.54 10.83L63.54 10.83L63.54 10.83Q63.77 11.26 63.77 12.10L63.77 12.10L63.77 12.10Q63.77 13.16 63.50 13.59L63.50 13.59L63.50 13.59Q63.22 14.03 62.37 14.17L62.37 14.17L62.37 14.17Q61.52 14.31 59.43 14.31L59.43 14.31L59.43 16.21L59.43 16.21Q60.03 16.38 61.03 16.38L61.03 16.38ZM60.63 11.02L60.63 11.02Q59.93 11.02 59.68 11.20L59.68 11.20L59.68 11.20Q59.43 11.38 59.43 11.89L59.43 11.89L59.43 13.50L61.54 13.50L61.54 13.50Q62.26 13.50 62.51 13.31L62.51 13.31L62.51 13.31Q62.76 13.13 62.76 12.64L62.76 12.64L62.76 11.02L60.63 11.02Z"></path></g><!----><g data-v-423bf9ae="" id="51ad132a-5608-47a0-bb7d-796cf8a4f6eb" transform="matrix(1.1111333211263021,0,0,1.1111333211263021,-2.4706676801363514,0.44233454599379485)" stroke="none" fill="black"><path d="M49.948 49.327l.776.63-14.453 17.788-.776-.63z"></path><path d="M50.728 49.34l13.503 17.616-.794.608L49.934 49.95z"></path><path d="M72.943 42.395l.285.959-22.753 6.765-.285-.958z"></path><path d="M51.167 26.091l.174 23.546-1 .008-.174-23.546z"></path><path d="M28.399 42.401l22.082 6.762-.293.957-22.082-6.762z"></path><path d="M39.243 35.086l.946.325-6.77 19.677-.945-.325z"></path><path d="M33.234 54.519l17.38 12.037-.569.823-17.38-12.038z"></path><path d="M66.482 55.088l.573.82-16.432 11.465-.572-.82z"></path><path d="M61.384 35.621l5.856 19.734-.959.285-5.856-19.734z"></path><path d="M39.723 34.747l21.195.515-.025 1-21.194-.516zM50.042 66.56l.579.816L23.618 86.52l-.579-.816zM67.233 55.33L78.12 85.944l-.942.335L66.29 55.665z"></path><path d="M93.98 34.904l.01 1-33.08.354-.01-1zM49.55 2.774l.951.304L40.191 35.4l-.952-.304zM6.712 34.648l26.542 19.88-.6.8-26.541-19.88z"></path><path d="M21.405 12.582l.96.278L6.487 67.686l-.96-.278z"></path><path d="M6.287 67.129L51.54 96.652l-.547.838L5.741 67.966z"></path><path d="M92.723 62.13l.637.771-41.767 34.568-.637-.77z"></path><path d="M73.078 12.14l20.43 50.192-.926.377-20.43-50.191z"></path><path d="M72.608 11.472l.015 1-50.587.739-.015-1zM6.016 66.991h29.866v1H6.016z"></path><path d="M22.522 12.544l6.374 30.841-.98.203-6.374-30.841zM72.345 11.623l.543.84-21.986 14.212-.543-.84zM73.437 42.524L93.4 62.168l-.701.713-19.963-19.644zM63.379 67.066l.921.388L51.73 97.27l-.921-.388z"></path><circle cx="6.41" cy="35.047" r="2.928"></circle><circle cx="32.979" cy="55.017" r="4.79"></circle><circle cx="93.05" cy="62.521" r="2.928"></circle><circle cx="93.987" cy="35.41" r="2.927"></circle><circle cx="51.269" cy="97.073" r="2.928"></circle><circle cx="6.014" cy="67.55" r="2.928"></circle><circle cx="50.332" cy="49.641" r="5.511"></circle><circle cx="39.816" cy="35" r="4.789"></circle><circle cx="60.904" cy="35.842" r="4.79"></circle><circle cx="77.649" cy="86.109" r="2.927"></circle><circle cx="50.635" cy="67.21" r="4.79"></circle><circle cx="66.735" cy="55.478" r="4.79"></circle><circle cx="28.249" cy="42.878" r="2.028"></circle><circle cx="50.633" cy="26.257" r="1.929"></circle><circle cx="35.881" cy="67.432" r="2.128"></circle><circle cx="63.833" cy="67.256" r="2.053"></circle><circle cx="50.031" cy="2.927" r="2.928"></circle><circle cx="72.616" cy="12.331" r="2.928"></circle><circle cx="73.085" cy="42.878" r="2.225"></circle><circle cx="23.331" cy="86.109" r="2.928"></circle><circle cx="22.03" cy="12.645" r="2.928"></circle></g><!----></svg>